# xmcd
#
# Track frame offsets: 
#        150
#        17850
#        34925
#        51700
#        69125
#        84000
#        98125
#        112650
#        129700
#        144300
#        159125
#        177325
#        194300
#        214825
#        230750
#        248650
#        265075
#        282750
#        300475
#
# Disc length: 4242 seconds
#
# Revision: 3
# Processed by: cddbd v1.5.2PL0 Copyright (c) Steve Scherf et al.
# Submitted via: ExactAudioCopy v0.95b4
#
DISCID=fb109013,fd109013
DTITLE=Various Artist - VIVA Interaktiv - Die Wunsch-Hit CD Vol.2
DYEAR=1997
DGENRE=Rock
TTITLE0=Apollo Four Forty - Ain't Talking 'Bout Dub
TTITLE1=M.R. - To France
TTITLE2=Marusha - Ur Life
TTITLE3=DJ Quicksilver - Bellissima
TTITLE4=Sequential One - My Love Is Hot
TTITLE5=Chicane - Offshore
TTITLE6=Vertigo - Oxygene
TTITLE7=Red 5 - I Love You...Stop!
TTITLE8=Souvlaki - Inferno
TTITLE9=Hobo - Hoochie Coochie Man
TTITLE10=Lyte Funkie Ones - Step By Step
TTITLE11=Jamiroquai - Cosmic Girl
TTITLE12=Alisha's Attic - Alisha Rules The World
TTITLE13=2 Young - Crimson and Clover
TTITLE14=DJ Bobo - Respect Yourself
TTITLE15=Scooter - Break It Up
TTITLE16=Peter Andre - I Feel You
TTITLE17=Marquis - The Brain
TTITLE18=Die Fantastischen Vier - Der Picknicker
EXTD=1997 Sony Music Media 
EXTT0=
EXTT1=
EXTT2=
EXTT3=
EXTT4=
EXTT5=
EXTT6=
EXTT7=
EXTT8=
EXTT9=
EXTT10=
EXTT11=
EXTT12=
EXTT13=
EXTT14=
EXTT15=
EXTT16=
EXTT17=
EXTT18=
PLAYORDER=
